<svg width="140" height="140" viewBox="0 0 140 140" fill="none" xmlns="http://www.w3.org/2000/svg">
<path d="M73.1199 12.4645C59.8659 -0.747482 40.0178 -3.44247 24.0602 4.31384L47.9966 28.1744C50.5683 30.7379 50.5683 34.879 47.9966 37.4425L37.5121 47.8938C34.9404 50.5231 30.7862 50.5231 28.2145 47.8938L4.2781 24.0333C-3.43693 40.006 -0.733371 59.6597 12.5207 72.8718C24.7856 85.0978 42.7214 88.3186 57.9536 82.6L110.442 134.922C117.234 141.693 128.18 141.693 134.906 134.922C141.698 128.152 141.698 117.24 134.906 110.536L82.6813 58.4108C88.7478 43.0297 85.5827 24.8878 73.1199 12.4645Z" fill="black"/>
</svg>
