<svg width="159" height="159" viewBox="0 0 159 159" fill="none" xmlns="http://www.w3.org/2000/svg">
<g id="select_all_24px">
<path id="icon/content/select_all_24px" fill-rule="evenodd" clip-rule="evenodd" d="M33.125 33.125H19.875C19.875 25.8375 25.8375 19.875 33.125 19.875V33.125ZM33.125 86.125H19.875V72.875H33.125V86.125ZM59.625 139.125V125.875H46.375V139.125H59.625ZM33.125 59.625H19.875V46.375H33.125V59.625ZM86.125 19.875H72.875V33.125H86.125V19.875ZM125.875 33.125V19.875C133.162 19.875 139.125 25.8375 139.125 33.125H125.875ZM33.125 139.125V125.875H19.875C19.875 133.162 25.8375 139.125 33.125 139.125ZM33.125 112.625H19.875V99.375H33.125V112.625ZM59.625 19.875H46.375V33.125H59.625V19.875ZM86.125 139.125H72.875V125.875H86.125V139.125ZM125.875 86.125H139.125V72.875H125.875V86.125ZM139.125 125.875C139.125 133.162 133.162 139.125 125.875 139.125V125.875H139.125ZM125.875 59.625H139.125V46.375H125.875V59.625ZM139.125 112.625H125.875V99.375H139.125V112.625ZM112.625 139.125V125.875H99.375V139.125H112.625ZM112.625 33.125H99.375V19.875H112.625V33.125ZM53 112.625H106C109.644 112.625 112.625 109.644 112.625 106V53C112.625 49.3563 109.644 46.375 106 46.375H53C49.3563 46.375 46.375 49.3563 46.375 53V106C46.375 109.644 49.3563 112.625 53 112.625ZM99.375 59.625H59.625V99.375H99.375V59.625Z" fill="#346AF4"/>
</g>
</svg>
