<svg xmlns="http://www.w3.org/2000/svg" width="39.093" height="39.093" viewBox="0 0 39.093 39.093"><path d="M262.616,200.58a19.5,19.5,0,0,0-.343-3.651,1.146,1.146,0,0,0-1.125-.931h-18A1.145,1.145,0,0,0,242,197.144v6.872a1.145,1.145,0,0,0,1.145,1.145h9.236a10.257,10.257,0,0,1-2.3,3.026l6.473,6.473A19.4,19.4,0,0,0,262.616,200.58Z" transform="translate(-223.522 -181.034)" fill="#346af4"/><path d="M60.8,9.162a10.2,10.2,0,0,1,6.181,2.065,1.144,1.144,0,0,0,1.5-.106l4.888-4.888a1.146,1.146,0,0,0-.074-1.688A19.449,19.449,0,0,0,44.663,8.586l6.723,6.723A10.311,10.311,0,0,1,60.8,9.162Z" transform="translate(-41.253 0)" fill="#346af4"/><path d="M60.8,326.809A19.342,19.342,0,0,0,72.451,322.9l-6.595-6.595A10.261,10.261,0,0,1,51.386,311.5l-6.723,6.723A19.466,19.466,0,0,0,60.8,326.809Z" transform="translate(-41.253 -287.716)" fill="#346af4"/><path d="M9.329,150.757a8.243,8.243,0,0,1,0-3.3l-7.187-7.187a19.293,19.293,0,0,0,0,17.673Z" transform="translate(0 -129.561)" fill="#346af4"/></svg>